<svg width="80" height="80" viewBox="0 0 80 80" fill="none" xmlns="http://www.w3.org/2000/svg">
<path d="M39.8594 8.07814C40.4219 9.26564 41.0469 10.3281 41.4688 11.4531C43.2344 16.2969 43.5781 21.2031 41.75 26.1094C40.6563 29.0313 38.8125 31.4531 36.5469 33.5938C35.6094 34.4844 34.7344 35.4688 34.0156 36.5313C33.3438 37.5469 33.3906 38.6875 34.0781 39.7656C35.4219 41.9063 37.25 43.5938 39.1406 45.2344C43.2188 48.7813 45.375 53.2813 45.6094 58.6875C45.7344 61.3438 45.6875 64 44.8125 66.5625C43.1406 71.3906 39.9844 74.9531 35.4219 77.2188C29.7031 80.0781 23.7031 80.1406 17.5938 78.8438C13.9375 78.0625 10.5625 76.625 7.70313 74.1563C3.15625 70.2188 1.875 64.8125 3.75 59.3594C6.5 51.375 12.4688 47.1719 20.5781 45.7188C21.7031 45.5156 22.8438 45.4844 24.0938 45.375C23.0938 43.1406 22.875 40.8125 23.3125 38.4844C21.9063 38.2031 20.5469 38.0313 19.2344 37.6406C15.4531 36.5313 12.5625 34.2031 10.4375 30.9219C7.96875 27.1406 6.9375 22.9063 7.26563 18.4375C7.60938 13.75 9.5625 9.73439 12.8594 6.39064C15.4688 3.73439 18.5781 1.90626 22.2188 1.07814C23.4531 0.796886 24.7344 0.656261 26 0.640636C32.4063 0.593761 38.8125 0.625011 45.2188 0.625011C46.3594 0.625011 46.8125 0.921886 47.1406 1.84376C47.4219 2.62501 47.1563 3.45314 46.4375 4.06251C45.2031 5.10939 43.9531 6.10939 42.7813 7.21876C42.1094 7.84376 41.4219 8.12501 40.5313 8.03126C40.3438 8.01564 40.1406 8.04689 39.8594 8.07814ZM25.9063 72.25C26.6875 72.1563 27.7969 72.0625 28.9063 71.875C31.2031 71.5 33.3125 70.6875 35 68.9844C36.8594 67.125 37.4063 64.7813 37.4844 62.2813C37.5625 60.1875 37.125 58.1875 35.5469 56.7031C33.8594 55.0938 32.0313 53.625 30.25 52.125C29.9844 51.9063 29.5938 51.8125 29.2344 51.7344C25 50.7344 21.0625 51.4375 17.5 53.9531C12.3594 57.5625 11.7031 64.125 16 68.6719C18.6094 71.3906 21.9063 72.3438 25.9063 72.25ZM32.875 22.5C32.875 20.0469 32.3906 17.6875 31.5313 15.4063C30.6094 12.9688 29.3125 10.75 27.2188 9.10939C25.6875 7.90626 23.9688 7.20314 21.9844 7.78126C19.875 8.39064 18.7969 10.0469 18.125 11.9688C16.875 15.5313 17.0781 19.1406 18.0938 22.7188C19 25.875 20.4688 28.7031 23.0781 30.8281C25.7344 32.9844 29.0781 32.8594 31.0156 29.8125C32.4531 27.5781 32.875 25.0938 32.875 22.5Z" fill="#D4D4D4"/>
<path d="M58.3125 25.7187C58.3125 23.7344 58.3125 21.7656 58.3125 19.7812C58.3125 18.2031 58.9063 17.625 60.5 17.625C61.2813 17.625 62.0625 17.6094 62.8438 17.625C63.8594 17.6406 64.4375 18.1562 64.5781 19.1562C64.625 19.4687 64.625 19.7812 64.625 20.0937C64.625 24 64.6406 27.9062 64.6094 31.8125C64.6094 32.5156 64.7813 32.75 65.5156 32.7344C68.7969 32.7031 72.0781 32.7187 75.3594 32.7187C76.7813 32.7187 77.3906 33.3281 77.4219 34.75C77.4375 35.8437 77.4375 36.9375 77.4219 38.0312C77.4063 39.5312 76.8125 40.125 75.3281 40.125C72.0469 40.125 68.7656 40.1406 65.4844 40.1094C64.7969 40.1094 64.6094 40.3125 64.6094 41C64.6406 44.9531 64.625 48.9219 64.625 52.875C64.625 54.7031 64.0781 55.25 62.2656 55.25C61.6406 55.25 61.0156 55.25 60.3906 55.25C59 55.25 58.3281 54.5937 58.3281 53.2031C58.3125 49.9531 58.3281 46.6875 58.3281 43.4375C58.3281 42.6562 58.2813 41.875 58.3438 41.0937C58.3906 40.3594 58.1719 40.1094 57.3906 40.1094C54.1875 40.1562 50.9844 40.125 47.7813 40.125C46.0781 40.125 45.5469 39.5937 45.5469 37.875C45.5469 36.8594 45.5313 35.8437 45.5469 34.8281C45.5625 33.25 46.1094 32.7031 47.6563 32.7031C50.9063 32.7031 54.1719 32.6875 57.4219 32.7187C58.1406 32.7187 58.3594 32.5156 58.3438 31.7969C58.2813 29.7812 58.3125 27.75 58.3125 25.7187Z" fill="#D4D4D4"/>
</svg>
