<svg width="134" height="134" viewBox="0 0 134 134" fill="none" xmlns="http://www.w3.org/2000/svg">
<path d="M1.04688 115.287C15.5984 116.596 28.7106 112.932 40.6449 103.981C28.1609 102.882 19.8121 96.6528 15.1535 84.9801C19.2363 85.4774 23.0574 85.6082 27.1141 84.509C13.6617 80.3215 6.49063 71.5278 5.52227 57.3426C9.55274 59.227 13.3477 60.5879 17.8231 60.6403C9.84063 54.6469 5.75782 46.8738 5.91485 37.0856C5.99337 32.584 7.19727 28.3442 9.57891 24.3399C24.366 41.6395 42.9219 51.2184 65.7699 52.8149C65.6391 51.8203 65.5606 51.0352 65.4559 50.2238C63.5715 35.7246 72.9934 22.534 87.3879 19.786C96.4172 18.0586 104.4 20.4403 111.152 26.6692C112.199 27.6113 113.089 27.8207 114.397 27.4805C119.658 26.1457 124.657 24.209 129.498 21.5918C127.64 27.716 123.819 32.3223 118.637 36.1957C119.815 35.9863 121.019 35.8293 122.196 35.5938C123.427 35.332 124.657 35.0442 125.887 34.7039C127.064 34.3899 128.216 34.0235 129.368 33.6309C130.545 33.2383 131.723 32.7934 133.11 32.5578C132.43 33.5 131.775 34.4945 131.043 35.4106C128.007 39.2578 124.5 42.634 120.652 45.6438C120.26 45.9578 119.92 46.6383 119.946 47.1094C120.155 56.4004 118.846 65.4559 115.837 74.2496C109.922 91.5754 99.6102 105.604 84.1426 115.627C76.5004 120.574 68.1516 123.819 59.227 125.704C50.3809 127.562 41.4824 127.902 32.5578 126.855C23.607 125.808 15.1012 123.165 7.09258 119.03C4.97266 117.957 2.93126 116.753 0.863678 115.601C0.942194 115.497 0.994537 115.392 1.04688 115.287Z" fill="#D4D4D4"/>
</svg>
