<svg width="64" height="64" viewBox="0 0 64 64" fill="none" xmlns="http://www.w3.org/2000/svg">
<path d="M3.99999 13.9C6.09999 13.9 9.29999 13.9 11.1 13.9C12 13.9 12.7 14.5 13 15.3C13.9 17.9 15.9 23.6 18.2 27.5C21.3 32.6 23.3 34.5 24.6 34.3C25.9 34 25.5 30.6 25.5 27.9C25.5 25.2 25.8 20.6 24.5 18.5L22.5 15.6C22 14.9 22.5 14 23.3 14H34.7C35.8 14 36.7 14.9 36.7 16V30.5C36.7 30.5 37.2 33.1 40 30.4C42.8 27.7 45.8 22.7 48.3 17.6L49.3 15.2C49.6 14.5 50.3 14 51.1 14H58.5C59.9 14 60.9 15.4 60.4 16.7L59.6 18.8C59.6 18.8 56.9 24.2 54.1 28C51.3 31.9 50.7 32.8 51.1 33.8C51.5 34.8 58.7 41.5 60.5 44.7C61 45.6 61.4 46.4 61.8 47.1C62.5 48.4 61.5 50.1 60 50.1H51.6C50.9 50.1 50.2 49.7 49.9 49.1L49.1 47.8C49.1 47.8 44 41.8 40.9 39.9C37.7 38.1 37.8 40.7 37.8 40.7V46C37.8 48.2 36 50 33.8 50H31.8C31.8 50 20.8 50 12 36.9C5.09999 26.7 2.79999 20.1 1.99999 16.3C1.79999 15.1 2.69999 13.9 3.99999 13.9Z" fill="#D4D4D4"/>
</svg>
